<?xml version="1.0" encoding="utf-8"?>
<!-- Generator: Adobe Illustrator 23.0.0, SVG Export Plug-In . SVG Version: 6.00 Build 0)  -->
<svg version="1.1" id="Capa_1" xmlns="http://www.w3.org/2000/svg" xmlns:xlink="http://www.w3.org/1999/xlink" x="0px" y="0px"
	 width="442px" height="442px" viewBox="0 0 442 442" style="enable-background:new 0 0 442 442;" xml:space="preserve">
<style type="text/css">
	.st0{fill:#D76523;}
</style>
<path class="st0" d="M416.6,102.1L232.4,4.2c-7.1-3.8-15.6-3.8-22.7,0L25.4,102.1c-7.9,4.2-12.8,12.4-12.8,21.4v195.1
	c0,8.9,4.9,17.2,12.8,21.4l184.2,97.9c7.1,3.8,15.6,3.8,22.7,0l184.3-98c7.9-4.2,12.8-12.4,12.8-21.4V123.4
	C429.4,114.5,424.5,106.3,416.6,102.1z M209.4,365.5c0,12.7-13.6,20.9-24.8,15L56.8,313c-5.5-2.9-9-8.7-9-15V183.6
	c0-9.3,7.6-16.9,16.9-16.9h127.8c9.3,0,16.9,7.6,16.9,16.9V365.5z M397.6,298c0,6.3-3.5,12.1-9,15l-127.7,67.5
	c-11.3,5.9-24.9-2.3-24.8-15V141.1c0-9.3,7.6-16.9,16.9-16.9h127.7c9.3,0,16.9,7.6,16.9,16.9V298z"/>
<path class="st0" d="M179,211.6H79.5c-5,0-9-4-9-9s4-9,9-9H179c5,0,9,4,9,9S184,211.6,179,211.6z"/>
<path class="st0" d="M179,251.3H79.5c-5,0-9-4-9-9s4-9,9-9H179c5,0,9,4,9,9S184,251.3,179,251.3z"/>
<path class="st0" d="M134.1,291H79.5c-5,0-9-4-9-9s4-9,9-9h54.6c5,0,9,4,9,9S139.1,291,134.1,291z"/>
<path class="st0" d="M291.7,190.5h-18.3c-4.7,0-8.5-3.8-8.5-8.5v-18.3c0-4.7,3.8-8.5,8.5-8.5h18.3c4.7,0,8.5,3.8,8.5,8.5V182
	C300.2,186.7,296.4,190.5,291.7,190.5z"/>
<path class="st0" d="M360.5,190.5h-18.3c-4.7,0-8.5-3.8-8.5-8.5v-18.3c0-4.7,3.8-8.5,8.5-8.5h18.3c4.7,0,8.5,3.8,8.5,8.5V182
	C368.9,186.7,365.1,190.5,360.5,190.5z"/>
<path class="st0" d="M291.7,249.9h-18.3c-4.7,0-8.5-3.8-8.5-8.5v-18.3c0-4.7,3.8-8.5,8.5-8.5h18.3c4.7,0,8.5,3.8,8.5,8.5v18.3
	C300.2,246.1,296.4,249.9,291.7,249.9z"/>
<path class="st0" d="M360.5,249.9h-18.3c-4.7,0-8.5-3.8-8.5-8.5v-18.3c0-4.7,3.8-8.5,8.5-8.5h18.3c4.7,0,8.5,3.8,8.5,8.5v18.3
	C368.9,246.1,365.1,249.9,360.5,249.9z"/>
<path class="st0" d="M291.7,308.9h-18.3c-4.7,0-8.5-3.8-8.5-8.5v-18.3c0-4.7,3.8-8.5,8.5-8.5h18.3c4.7,0,8.5,3.8,8.5,8.5v18.3
	C300.2,305.2,296.4,308.9,291.7,308.9z"/>
<path class="st0" d="M360.5,308.9h-18.3c-4.7,0-8.5-3.8-8.5-8.5v-18.3c0-4.7,3.8-8.5,8.5-8.5h18.3c4.7,0,8.5,3.8,8.5,8.5v18.3
	C368.9,305.2,365.1,308.9,360.5,308.9z"/>
</svg>
